<svg xmlns="http://www.w3.org/2000/svg" width="793" height="579"><rect width="793" height="579" x="0" y="0" fill="#FFFFFF" id="background"/><g transform="translate(10,10)" id="visualization"><g><rect x="0" y="-5.684341886080802e-14" height="35.642857142857146" width="5" fill="black"><title>Aaron Swartz: 1</title></rect><rect x="0" y="40.64285714285709" height="35.642857142857146" width="5" fill="black"><title>Lukas Biewald: 1</title></rect><rect x="0" y="81.28571428571423" height="35.64285714285714" width="5" fill="black"><title>Sam Altman: 1</title></rect><rect x="0" y="121.92857142857137" height="35.642857142857125" width="5" fill="black"><title>Mike Krieger: 1</title></rect><rect x="0" y="162.5714285714285" height="35.64285714285714" width="5" fill="black"><title>Debbie Sterling: 1</title></rect><rect x="0" y="203.21428571428564" height="35.64285714285717" width="5" fill="black"><title>Bobby Murphy: 1</title></rect><rect x="0" y="243.8571428571428" height="35.642857142857196" width="5" fill="black"><title>Caroline Ghosn: 1</title></rect><rect x="0" y="284.5" height="35.64285714285717" width="5" fill="black"><title>Garry Tan: 1</title></rect><rect x="0" y="325.14285714285717" height="35.64285714285717" width="5" fill="black"><title>Isha Ambani: 1</title></rect><rect x="0" y="365.78571428571433" height="35.64285714285717" width="5" fill="black"><title>Linda Kwamboka: 1</title></rect><rect x="0" y="406.4285714285715" height="35.64285714285717" width="5" fill="black"><title>Tristan Harris: 1</title></rect><rect x="0" y="447.07142857142867" height="35.64285714285711" width="5" fill="black"><title>Ernest Garcia III: 1</title></rect><rect x="768" y="27.499999999999915" height="35.642857142857146" width="5" fill="black"><title>2013-01-11T00:00:00Z: 1</title></rect><rect x="0" y="487.7142857142858" height="71.28571428571433" width="5" fill="black"><title>Melanie Kannokada: 2</title></rect><rect x="768" y="68.14285714285705" height="463.35714285714295" width="5" fill="black"><title>: 13</title></rect><rect x="384" y="30" height="499" width="5" fill="black"><title>undefined: 14</title></rect></g><g fill="none" stroke-opacity="1"><g style="mix-blend-mode: multiply;"><path d="M5,17.821428571428516C194.5,17.821428571428516,194.5,47.82142857142857,384,47.82142857142857" stroke="#ff7f0e" stroke-width="35.642857142857146"/><title>Aaron Swartz → undefined: 1</title></g><g style="mix-blend-mode: multiply;"><path d="M5,58.464285714285666C194.5,58.464285714285666,194.5,83.46428571428571,384,83.46428571428571" stroke="#17becf" stroke-width="35.642857142857146"/><title>Lukas Biewald → undefined: 1</title></g><g style="mix-blend-mode: multiply;"><path d="M5,523.3571428571429C194.5,523.3571428571429,194.5,493.357142857143,384,493.357142857143" stroke="#cccccc" stroke-width="71.28571428571429"/><title>Melanie Kannokada → undefined: 2</title></g><g style="mix-blend-mode: multiply;"><path d="M5,99.1071428571428C194.5,99.1071428571428,194.5,119.10714285714285,384,119.10714285714285" stroke="#cccccc" stroke-width="35.642857142857146"/><title>Sam Altman → undefined: 1</title></g><g style="mix-blend-mode: multiply;"><path d="M5,139.74999999999994C194.5,139.74999999999994,194.5,154.75,384,154.75" stroke="#cccccc" stroke-width="35.642857142857146"/><title>Mike Krieger → undefined: 1</title></g><g style="mix-blend-mode: multiply;"><path d="M5,180.39285714285708C194.5,180.39285714285708,194.5,190.39285714285714,384,190.39285714285714" stroke="#9467bd" stroke-width="35.642857142857146"/><title>Debbie Sterling → undefined: 1</title></g><g style="mix-blend-mode: multiply;"><path d="M5,221.03571428571422C194.5,221.03571428571422,194.5,226.03571428571428,384,226.03571428571428" stroke="#2ca02c" stroke-width="35.642857142857146"/><title>Bobby Murphy → undefined: 1</title></g><g style="mix-blend-mode: multiply;"><path d="M5,261.6785714285714C194.5,261.6785714285714,194.5,261.6785714285714,384,261.6785714285714" stroke="#d62728" stroke-width="35.642857142857146"/><title>Caroline Ghosn → undefined: 1</title></g><g style="mix-blend-mode: multiply;"><path d="M5,302.32142857142856C194.5,302.32142857142856,194.5,297.32142857142856,384,297.32142857142856" stroke="#e377c2" stroke-width="35.642857142857146"/><title>Garry Tan → undefined: 1</title></g><g style="mix-blend-mode: multiply;"><path d="M5,342.9642857142857C194.5,342.9642857142857,194.5,332.9642857142857,384,332.9642857142857" stroke="#7f7f7f" stroke-width="35.642857142857146"/><title>Isha Ambani → undefined: 1</title></g><g style="mix-blend-mode: multiply;"><path d="M5,383.6071428571429C194.5,383.6071428571429,194.5,368.6071428571429,384,368.6071428571429" stroke="#bcbd22" stroke-width="35.642857142857146"/><title>Linda Kwamboka → undefined: 1</title></g><g style="mix-blend-mode: multiply;"><path d="M5,424.25000000000006C194.5,424.25000000000006,194.5,404.25000000000006,384,404.25000000000006" stroke="#cccccc" stroke-width="35.642857142857146"/><title>Tristan Harris → undefined: 1</title></g><g style="mix-blend-mode: multiply;"><path d="M5,464.8928571428572C194.5,464.8928571428572,194.5,439.8928571428572,384,439.8928571428572" stroke="#8c564b" stroke-width="35.642857142857146"/><title>Ernest Garcia III → undefined: 1</title></g><g style="mix-blend-mode: multiply;"><path d="M389,47.82142857142857C578.5,47.82142857142857,578.5,45.321428571428484,768,45.321428571428484" stroke="#1f77b4" stroke-width="35.642857142857146"/><title>undefined → 2013-01-11T00:00:00Z: 1</title></g><g style="mix-blend-mode: multiply;"><path d="M389,297.32142857142856C578.5,297.32142857142856,578.5,299.8214285714285,768,299.8214285714285" stroke="#1f77b4" stroke-width="463.3571428571429"/><title>undefined → : 13</title></g></g><g><text x="9" y="17.821428571428516" text-anchor="start"><tspan alignment-baseline="middle" x="9" style="font-family: Arial, sans-serif; font-size: 10px; fill: black; font-weight: bold;">Aaron Swartz</tspan></text><text x="9" y="58.464285714285666" text-anchor="start"><tspan alignment-baseline="middle" x="9" style="font-family: Arial, sans-serif; font-size: 10px; fill: black; font-weight: bold;">Lukas Biewald</tspan></text><text x="9" y="99.1071428571428" text-anchor="start"><tspan alignment-baseline="middle" x="9" style="font-family: Arial, sans-serif; font-size: 10px; fill: black; font-weight: bold;">Sam Altman</tspan></text><text x="9" y="139.74999999999994" text-anchor="start"><tspan alignment-baseline="middle" x="9" style="font-family: Arial, sans-serif; font-size: 10px; fill: black; font-weight: bold;">Mike Krieger</tspan></text><text x="9" y="180.39285714285705" text-anchor="start"><tspan alignment-baseline="middle" x="9" style="font-family: Arial, sans-serif; font-size: 10px; fill: black; font-weight: bold;">Debbie Sterling</tspan></text><text x="9" y="221.03571428571422" text-anchor="start"><tspan alignment-baseline="middle" x="9" style="font-family: Arial, sans-serif; font-size: 10px; fill: black; font-weight: bold;">Bobby Murphy</tspan></text><text x="9" y="261.6785714285714" text-anchor="start"><tspan alignment-baseline="middle" x="9" style="font-family: Arial, sans-serif; font-size: 10px; fill: black; font-weight: bold;">Caroline Ghosn</tspan></text><text x="9" y="302.32142857142856" text-anchor="start"><tspan alignment-baseline="middle" x="9" style="font-family: Arial, sans-serif; font-size: 10px; fill: black; font-weight: bold;">Garry Tan</tspan></text><text x="9" y="342.9642857142858" text-anchor="start"><tspan alignment-baseline="middle" x="9" style="font-family: Arial, sans-serif; font-size: 10px; fill: black; font-weight: bold;">Isha Ambani</tspan></text><text x="9" y="383.6071428571429" text-anchor="start"><tspan alignment-baseline="middle" x="9" style="font-family: Arial, sans-serif; font-size: 10px; fill: black; font-weight: bold;">Linda Kwamboka</tspan></text><text x="9" y="424.2500000000001" text-anchor="start"><tspan alignment-baseline="middle" x="9" style="font-family: Arial, sans-serif; font-size: 10px; fill: black; font-weight: bold;">Tristan Harris</tspan></text><text x="9" y="464.8928571428572" text-anchor="start"><tspan alignment-baseline="middle" x="9" style="font-family: Arial, sans-serif; font-size: 10px; fill: black; font-weight: bold;">Ernest Garcia III</tspan></text><text x="764" y="45.321428571428484" text-anchor="end"><tspan alignment-baseline="middle" x="764" style="font-family: Arial, sans-serif; font-size: 10px; fill: black; font-weight: bold;">2013-01-11T00:00:00Z</tspan></text><text x="9" y="523.3571428571429" text-anchor="start"><tspan alignment-baseline="middle" x="9" style="font-family: Arial, sans-serif; font-size: 10px; fill: black; font-weight: bold;">Melanie Kannokada</tspan></text><text x="764" y="299.82142857142856" text-anchor="end"><tspan alignment-baseline="middle" x="764" style="font-family: Arial, sans-serif; font-size: 10px; fill: black; font-weight: bold;"/></text><text x="393" y="279.5" text-anchor="start"><tspan alignment-baseline="middle" x="393" style="font-family: Arial, sans-serif; font-size: 10px; fill: black; font-weight: bold;"/></text></g><g><text x="2.5" y="-4.000000000000057" text-anchor="middle" style="font-family: Arial, sans-serif; font-size: 12px; fill: rgb(123, 123, 123); font-weight: bold;">occupationLabel</text><text x="770.5" y="23.499999999999915" text-anchor="middle" style="font-family: Arial, sans-serif; font-size: 12px; fill: rgb(123, 123, 123); font-weight: bold;">date_de_mort</text><text x="386.5" y="26" text-anchor="middle" style="font-family: Arial, sans-serif; font-size: 12px; fill: rgb(123, 123, 123); font-weight: bold;">date_de_naissance</text></g></g></svg>